<svg id="visual" viewBox="0 0 900 600" width="900" height="600" xmlns="http://www.w3.org/2000/svg" xmlns:xlink="http://www.w3.org/1999/xlink" version="1.1"><rect x="0" y="0" width="900" height="600" fill="#0e0f12"></rect><path d="M0 180L21.5 188.7C43 197.3 86 214.7 128.8 216C171.7 217.3 214.3 202.7 257.2 196.2C300 189.7 343 191.3 385.8 189.7C428.7 188 471.3 183 514.2 184.8C557 186.7 600 195.3 642.8 206.8C685.7 218.3 728.3 232.7 771.2 236C814 239.3 857 231.7 878.5 227.8L900 224L900 0L878.5 0C857 0 814 0 771.2 0C728.3 0 685.7 0 642.8 0C600 0 557 0 514.2 0C471.3 0 428.7 0 385.8 0C343 0 300 0 257.2 0C214.3 0 171.7 0 128.8 0C86 0 43 0 21.5 0L0 0Z" fill="#1e3719"></path><path d="M0 119L21.5 123.2C43 127.3 86 135.7 128.8 139C171.7 142.3 214.3 140.7 257.2 148.5C300 156.3 343 173.7 385.8 172.7C428.7 171.7 471.3 152.3 514.2 142.8C557 133.3 600 133.7 642.8 141.2C685.7 148.7 728.3 163.3 771.2 168.7C814 174 857 170 878.5 168L900 166L900 0L878.5 0C857 0 814 0 771.2 0C728.3 0 685.7 0 642.8 0C600 0 557 0 514.2 0C471.3 0 428.7 0 385.8 0C343 0 300 0 257.2 0C214.3 0 171.7 0 128.8 0C86 0 43 0 21.5 0L0 0Z" fill="#395c2f"></path><path d="M0 161L21.5 156.5C43 152 86 143 128.8 142.7C171.7 142.3 214.3 150.7 257.2 152.7C300 154.7 343 150.3 385.8 140.3C428.7 130.3 471.3 114.7 514.2 115.5C557 116.3 600 133.7 642.8 136.8C685.7 140 728.3 129 771.2 121.3C814 113.7 857 109.3 878.5 107.2L900 105L900 0L878.5 0C857 0 814 0 771.2 0C728.3 0 685.7 0 642.8 0C600 0 557 0 514.2 0C471.3 0 428.7 0 385.8 0C343 0 300 0 257.2 0C214.3 0 171.7 0 128.8 0C86 0 43 0 21.5 0L0 0Z" fill="#568346"></path><path d="M0 73L21.5 75.7C43 78.3 86 83.7 128.8 88.8C171.7 94 214.3 99 257.2 102.2C300 105.3 343 106.7 385.8 103.7C428.7 100.7 471.3 93.3 514.2 94.8C557 96.3 600 106.7 642.8 104.2C685.7 101.7 728.3 86.3 771.2 78C814 69.7 857 68.3 878.5 67.7L900 67L900 0L878.5 0C857 0 814 0 771.2 0C728.3 0 685.7 0 642.8 0C600 0 557 0 514.2 0C471.3 0 428.7 0 385.8 0C343 0 300 0 257.2 0C214.3 0 171.7 0 128.8 0C86 0 43 0 21.5 0L0 0Z" fill="#76ac5e"></path><path d="M0 40L21.5 41.8C43 43.7 86 47.3 128.8 47.8C171.7 48.3 214.3 45.7 257.2 46.5C300 47.3 343 51.7 385.8 52.2C428.7 52.7 471.3 49.3 514.2 49.8C557 50.3 600 54.7 642.8 54C685.7 53.3 728.3 47.7 771.2 45.7C814 43.7 857 45.3 878.5 46.2L900 47L900 0L878.5 0C857 0 814 0 771.2 0C728.3 0 685.7 0 642.8 0C600 0 557 0 514.2 0C471.3 0 428.7 0 385.8 0C343 0 300 0 257.2 0C214.3 0 171.7 0 128.8 0C86 0 43 0 21.5 0L0 0Z" fill="#99d777"></path></svg>