<!DOCTYPE svg PUBLIC "-//W3C//DTD SVG 1.1//EN" "http://www.w3.org/Graphics/SVG/1.1/DTD/svg11.dtd">
<!-- Uploaded to: SVG Repo, www.svgrepo.com, Transformed by: SVG Repo Mixer Tools -->
<svg fill="#152d0a" height="2rem" width="2rem" version="1.1" id="Layer_1" xmlns="http://www.w3.org/2000/svg" xmlns:xlink="http://www.w3.org/1999/xlink" viewBox="0 0 512.002 512.002" xml:space="preserve">
<g id="SVGRepo_bgCarrier" stroke-width="0"/>
<g id="SVGRepo_tracerCarrier" stroke-linecap="round" stroke-linejoin="round"/>
<g id="SVGRepo_iconCarrier"> <g> <g> <path d="M480.46,21.379c-1.598-4.062-3.926-7.692-6.92-10.785c-5.302-5.476-12.241-8.899-19.541-9.639 c-63.177-6.382-132.301,19.483-184.893,69.205c-3.563,3.367-8.216,5.222-13.104,5.222c-4.888,0-9.541-1.855-13.102-5.22 C190.304,20.44,121.191-5.426,58.005,0.957c-7.302,0.738-14.241,4.161-19.543,9.637c-2.995,3.093-5.324,6.723-6.92,10.786 C4.183,90.987,13.957,176.714,57.688,250.702c41.041,69.434,107.008,118.24,175.95,131.489v28.375v10.159 c0,38.901,23.057,74.047,58.742,89.538c2.719,1.181,5.55,1.74,8.337,1.74c8.098,0,15.812-4.72,19.244-12.623 c4.611-10.621-0.263-22.97-10.884-27.58c-20.355-8.836-33.507-28.884-33.507-51.074v-9.685v-28.358 c69.95-12.451,137.151-61.61,178.745-131.981C498.045,176.714,507.819,90.987,480.46,21.379z"/> </g> </g> </g>
</svg>